{"title":"Eh Janam Tumhare Lekhe (2015) DvD Rip - XviD - [1CD] - Eng Subs ","uid":11865166,"size":726974197,"categoryP":"video","categoryS":"other","magnet":"?xt=urn:btih:3598db208ad71d37fafb9ed6f32b95e4320c87f1&amp;dn=Eh+Janam+Tumhare+Lekhe+%282015%29+DvD+Rip+-+XviD+-+%5B1CD%5D+-+Eng+Subs+&amp;tr=udp%3A%2F%2Ftracker.openbittorrent.com%3A80&amp;tr=udp%3A%2F%2Fopen.demonii.com%3A1337&amp;tr=udp%3A%2F%2Ftracker.coppersurfer.tk%3A6969&amp;tr=udp%3A%2F%2Fexodus.desync.com%3A6969","seeders":3,"leechers":0,"uploader":"juggs99","files":3,"time":1430330848,"description":"Eh Janam Tumhare Lekhe (2015) DvD Rip - XviD - [1CD] - Eng Subs - Team IcTv -={SPARROW}=-\n &lt;a href=&quot;\nhttp://imgsparrow.co/image/Er&quot; rel=&quot;nofollow&quot; target=&quot;_NEW&quot;&gt;\nhttp://imgsparrow.co/image/Er&lt;/a&gt;\n\nInfo : - \n\nAll Credit Goes To Intellect Clever &amp; IcTv\n\nMovie Info\nYear : 2015\nCast : Sudhanshu Aggarwal, Arjuna Bhalla, Avrinder Kaur\nVideo: XviD\nAudio : MP3\nGenre : Drama\nSubtitles : English\nResolution : 640 x 272\nRuntime : 2hr 05min xx\nSource : DDR Thanks\n\nFormat                                   : AVI\nFormat/Info                              : Audio Video Interleave\nFile size                                : 693 MiB\nDuration                                 : 2h 5mn\nOverall bit rate                         : 775 Kbps\n\nVideo\nID                                       : 0\nFormat                                   : MPEG-4 Visual\nFormat profile                           : Advanced Simple@L5\nCodec ID                                 : XVID\nCodec ID/Hint                            : XviD\nDuration                                 : 2h 5mn\nBit rate                                 : 641 Kbps\nWidth                                    : 640 pixels\nHeight                                   : 272 pixels\nDisplay aspect ratio                     : 2.35:1\nFrame rate                               : 23.976 fps\nColor space                              : YUV\nChroma subsampling                       : 4:2:0\nBit depth                                : 8 bits\nScan type                                : Progressive\nCompression mode                         : Lossy\nBits/(Pixel*Frame)                       : 0.154\nStream size                              : 573 MiB (83%)\nWriting library                          : XviD 1.2.1 (UTC 2008-12-04)\n\nAudio\nID                                       : 1\nFormat                                   : MPEG Audio\nFormat version                           : Version 1\nFormat profile                           : Layer 3\nMode                                     : Joint stereo\nMode extension                           : MS Stereo\nCodec ID                                 : 55\nCodec ID/Hint                            : MP3\nDuration                                 : 2h 5mn\nBit rate mode                            : Constant\nBit rate                                 : 128 Kbps\nChannel(s)                               : 2 channels\nSampling rate                            : 48.0 KHz\nCompression mode                         : Lossy\nStream size                              : 115 MiB (17%)\n\nScreens : - \n &lt;a href=&quot;\nhttp://imgsparrow.co/image/ED&quot; rel=&quot;nofollow&quot; target=&quot;_NEW&quot;&gt;\nhttp://imgsparrow.co/image/ED&lt;/a&gt; &lt;a href=&quot;\nhttp://imgsparrow.co/image/EG&quot; rel=&quot;nofollow&quot; target=&quot;_NEW&quot;&gt;\nhttp://imgsparrow.co/image/EG&lt;/a&gt; &lt;a href=&quot;\nhttp://imgsparrow.co/image/Ee&quot; rel=&quot;nofollow&quot; target=&quot;_NEW&quot;&gt;\nhttp://imgsparrow.co/image/Ee&lt;/a&gt; &lt;a href=&quot;\nhttp://imgsparrow.co/image/Eg&quot; rel=&quot;nofollow&quot; target=&quot;_NEW&quot;&gt;\nhttp://imgsparrow.co/image/Eg&lt;/a&gt; &lt;a href=&quot;\nhttp://imgsparrow.co/image/Eq&quot; rel=&quot;nofollow&quot; target=&quot;_NEW&quot;&gt;\nhttp://imgsparrow.co/image/Eq&lt;/a&gt; &lt;a href=&quot;\nhttp://imgsparrow.co/image/Ez&quot; rel=&quot;nofollow&quot; target=&quot;_NEW&quot;&gt;\nhttp://imgsparrow.co/image/Ez&lt;/a&gt; &lt;a href=&quot;\nhttp://imgsparrow.co/image/E7&quot; rel=&quot;nofollow&quot; target=&quot;_NEW&quot;&gt;\nhttp://imgsparrow.co/image/E7&lt;/a&gt; &lt;a href=&quot;\nhttp://imgsparrow.co/image/Ek&quot; rel=&quot;nofollow&quot; target=&quot;_NEW&quot;&gt;\nhttp://imgsparrow.co/image/Ek&lt;/a&gt; &lt;a href=&quot;\nhttp://imgsparrow.co/image/En&quot; rel=&quot;nofollow&quot; target=&quot;_NEW&quot;&gt;\nhttp://imgsparrow.co/image/En&lt;/a&gt; &lt;a href=&quot;\nhttp://imgsparrow.co/image/Ey&quot; rel=&quot;nofollow&quot; target=&quot;_NEW&quot;&gt;\nhttp://imgsparrow.co/image/Ey&lt;/a&gt;\n &lt;a href=&quot;\nhttp://imgsparrow.co/image/N2&quot; rel=&quot;nofollow&quot; target=&quot;_NEW&quot;&gt;\nhttp://imgsparrow.co/image/N2&lt;/a&gt;","torrent":{"xt":"urn:btih:3598db208ad71d37fafb9ed6f32b95e4320c87f1","amp;dn":"Eh+Janam+Tumhare+Lekhe+%282015%29+DvD+Rip+-+XviD+-+%5B1CD%5D+-+Eng+Subs+","amp;tr":["udp%3A%2F%2Ftracker.openbittorrent.com%3A80","udp%3A%2F%2Fopen.demonii.com%3A1337","udp%3A%2F%2Ftracker.coppersurfer.tk%3A6969","udp%3A%2F%2Fexodus.desync.com%3A6969"],"infoHash":"3598db208ad71d37fafb9ed6f32b95e4320c87f1","infoHashBuffer":{"type":"Buffer","data":[53,152,219,32,138,215,29,55,250,251,158,214,243,43,149,228,50,12,135,241]},"announce":[],"urlList":[]}}